Coordinates
version=1
nRows=9
nColumns=24
inDegrees=yes

Units are S.I. units (second, meters, Newtons, ...)
Angles are in degrees.

endheader
time	pelvis_tilt	pelvis_list	pelvis_rotation	pelvis_tx	pelvis_ty	pelvis_tz	hip_flexion_r	hip_adduction_r	hip_rotation_r	knee_angle_r	ankle_angle_r	subtalar_angle_r	mtp_angle_r	hip_flexion_l	hip_adduction_l	hip_rotation_l	knee_angle_l	ankle_angle_l	subtalar_angle_l	mtp_angle_l	lumbar_extension	lumbar_bending	lumbar_rotation
      4.32000000	      0.06550848	     -7.78280219	     -9.22006221	      0.86760937	      0.91662082	     -0.21327063	    -20.04188857	      8.26005531	      2.14345250	    -11.95821240	     15.78557389	      7.74822114	      0.00000000	     28.47082133	     -8.17067075	      0.09875487	    -11.60027887	      5.54240006	     -7.81084032	      0.00000000	    -28.83122402	     -0.25491636	     15.44025409
      4.33000000	      0.25881276	     -7.10528512	     -9.16997780	      0.88323098	      0.91547256	     -0.21423137	    -20.31520684	      7.26875252	      1.88472923	    -13.35020880	     15.12875553	      8.16755529	      0.00000000	     28.99927610	     -7.21789000	      0.11995687	    -14.31183813	      4.53121764	     -7.85507299	      0.00000000	    -28.82113682	     -1.06555753	     15.05926423
      4.34000000	      0.50213688	     -6.39561379	     -8.86932306	      0.89907503	      0.91452530	     -0.21554782	    -20.53419992	      6.31149158	      1.23512240	    -14.89594579	     14.20770532	      8.68052574	      0.00000000	     29.53648999	     -6.09813326	      0.29218713	    -17.14777361	      3.41087788	     -7.98882002	      0.00000000	    -28.87083292	     -1.80824579	     14.41834039
      4.35000000	      0.82147044	     -5.66550831	     -8.43209965	      0.91518363	      0.91387401	     -0.21708049	    -20.73301667	      5.35765781	      0.39129897	    -16.60528278	     12.94902536	      9.22069879	      0.00000000	     29.93539089	     -4.86173408	      0.61121129	    -19.90847751	      2.30422679	     -8.37581539	      0.00000000	    -28.99226161	     -2.52051567	     13.71099539
      4.36000000	      1.15802805	     -4.90283362	     -7.96746635	      0.93153695	      0.91348603	     -0.21855327	    -20.80951995	      4.38892749	     -0.47610371	    -18.55231937	     11.29561362	      9.62929430	      0.00000000	     30.16912044	     -3.57110292	      1.03134191	    -22.46664113	      1.46074223	     -8.79711197	      0.00000000	    -29.11378387	     -3.28328718	     12.97102344
      4.37000000	      1.57045325	     -4.16872076	     -7.50092367	      0.94812755	      0.91345801	     -0.22013037	    -20.79899363	      3.40428619	     -1.48933185	    -20.76449240	      9.15001136	     10.07885334	      0.00000000	     30.11670440	     -2.27014773	      1.48822572	    -24.72856592	      1.00308893	     -9.41149728	      0.00000000	    -29.29968369	     -3.99640299	     12.27332422
      4.38000000	      1.95068936	     -3.45991645	     -7.07442290	      0.96478600	      0.91362636	     -0.22165919	    -20.54963237	      2.42419575	     -2.44109300	    -23.27615819	      6.52819693	     10.39096101	      0.00000000	     29.89395917	     -1.00543052	      1.93451247	    -26.70083024	      1.01542347	    -10.04899804	      0.00000000	    -29.43480656	     -4.68552826	     11.63939163
      4.39000000	      2.27044267	     -2.79541748	     -6.72996573	      0.98137192	      0.91397590	     -0.22311914	    -19.99186027	      1.44721764	     -3.28675750	    -26.10307278	      3.41719505	     10.53496468	      0.00000000	     29.52773720	      0.17541208	      2.30263692	    -28.37773061	      1.52440033	    -10.67712486	      0.00000000	    -29.49478381	     -5.32956735	     11.10843997
      4.40000000	      2.48160344	     -2.16242293	     -6.50798970	      0.99770469	      0.91445486	     -0.22441664	    -19.04476396	      0.46735292	     -3.90610160	    -29.23493643	     -0.11021003	     10.42497026	      0.00000000	     29.09640697	      1.24294964	      2.52062382	    -29.78600488	      2.46925658	    -11.17612487	      0.00000000	    -29.43862298	     -5.96555997	     10.69454717
